<svg width="18" height="18" viewBox="0 0 18 18" fill="none" xmlns="http://www.w3.org/2000/svg">
<mask id="path-1-outside-1_8476_5558" maskUnits="userSpaceOnUse" x="-1" y="-1" width="20" height="20" fill="black">
<rect fill="white" x="-1" y="-1" width="20" height="20"/>
<path d="M9 17.4736C13.6318 17.4736 17.4668 13.6387 17.4668 9.00684C17.4668 4.3833 13.6235 0.540039 8.9917 0.540039C4.36816 0.540039 0.533203 4.3833 0.533203 9.00684C0.533203 13.6387 4.37646 17.4736 9 17.4736ZM6.02002 12.6924C5.63818 12.6924 5.32275 12.377 5.32275 11.9868C5.32275 11.7959 5.39746 11.6299 5.53027 11.5054L8.01221 9.01514L5.53027 6.5249C5.39746 6.40869 5.32275 6.23438 5.32275 6.04346C5.32275 5.66162 5.63818 5.35449 6.02002 5.35449C6.21924 5.35449 6.37695 5.4292 6.50146 5.56201L8.9917 8.04395L11.4985 5.55371C11.6396 5.4043 11.7974 5.33789 11.98 5.33789C12.3701 5.33789 12.6772 5.65332 12.6772 6.03516C12.6772 6.22607 12.6191 6.38379 12.4697 6.5166L9.97949 9.01514L12.4614 11.4888C12.5942 11.6216 12.6689 11.7876 12.6689 11.9868C12.6689 12.377 12.3618 12.6924 11.9717 12.6924C11.7725 12.6924 11.5981 12.6094 11.4736 12.4849L8.9917 9.99463L6.51807 12.4849C6.39355 12.6177 6.21924 12.6924 6.02002 12.6924Z"/>
</mask>
<path d="M9 17.4736C13.6318 17.4736 17.4668 13.6387 17.4668 9.00684C17.4668 4.3833 13.6235 0.540039 8.9917 0.540039C4.36816 0.540039 0.533203 4.3833 0.533203 9.00684C0.533203 13.6387 4.37646 17.4736 9 17.4736ZM6.02002 12.6924C5.63818 12.6924 5.32275 12.377 5.32275 11.9868C5.32275 11.7959 5.39746 11.6299 5.53027 11.5054L8.01221 9.01514L5.53027 6.5249C5.39746 6.40869 5.32275 6.23438 5.32275 6.04346C5.32275 5.66162 5.63818 5.35449 6.02002 5.35449C6.21924 5.35449 6.37695 5.4292 6.50146 5.56201L8.9917 8.04395L11.4985 5.55371C11.6396 5.4043 11.7974 5.33789 11.98 5.33789C12.3701 5.33789 12.6772 5.65332 12.6772 6.03516C12.6772 6.22607 12.6191 6.38379 12.4697 6.5166L9.97949 9.01514L12.4614 11.4888C12.5942 11.6216 12.6689 11.7876 12.6689 11.9868C12.6689 12.377 12.3618 12.6924 11.9717 12.6924C11.7725 12.6924 11.5981 12.6094 11.4736 12.4849L8.9917 9.99463L6.51807 12.4849C6.39355 12.6177 6.21924 12.6924 6.02002 12.6924Z" fill="#002DFF"/>
<path d="M5.53027 11.5054L6.21421 12.2349L6.22659 12.2233L6.23856 12.2113L5.53027 11.5054ZM8.01221 9.01514L8.72049 9.72106L9.42407 9.01514L8.72049 8.30921L8.01221 9.01514ZM5.53027 6.5249L6.23856 5.81898L6.21447 5.7948L6.18878 5.77233L5.53027 6.5249ZM6.50146 5.56201L5.77193 6.24595L5.78353 6.25833L5.79554 6.2703L6.50146 5.56201ZM8.9917 8.04395L8.28577 8.75223L8.99053 9.45464L9.69645 8.7534L8.9917 8.04395ZM11.4985 5.55371L12.2033 6.26316L12.2146 6.25193L12.2255 6.24033L11.4985 5.55371ZM12.4697 6.5166L11.8054 5.76919L11.7828 5.78927L11.7614 5.81067L12.4697 6.5166ZM9.97949 9.01514L9.27121 8.30921L8.56527 9.0175L9.27357 9.72343L9.97949 9.01514ZM12.4614 11.4888L13.1685 10.7817L13.1673 10.7805L12.4614 11.4888ZM11.4736 12.4849L10.7653 13.1908L10.7665 13.192L11.4736 12.4849ZM8.9917 9.99463L9.69999 9.2887L8.99051 8.57686L8.28223 9.28989L8.9917 9.99463ZM6.51807 12.4849L5.8086 11.7801L5.79841 11.7904L5.78853 11.8009L6.51807 12.4849ZM9 18.4736C14.1841 18.4736 18.4668 14.191 18.4668 9.00684H16.4668C16.4668 13.0864 13.0796 16.4736 9 16.4736V18.4736ZM18.4668 9.00684C18.4668 3.83038 14.1752 -0.459961 8.9917 -0.459961V1.54004C13.0719 1.54004 16.4668 4.93622 16.4668 9.00684H18.4668ZM8.9917 -0.459961C3.81461 -0.459961 -0.466797 3.83229 -0.466797 9.00684H1.5332C1.5332 4.93431 4.92172 1.54004 8.9917 1.54004V-0.459961ZM-0.466797 9.00684C-0.466797 14.1916 3.82482 18.4736 9 18.4736V16.4736C4.92811 16.4736 1.5332 13.0858 1.5332 9.00684H-0.466797ZM6.02002 11.6924C6.19815 11.6924 6.32275 11.8324 6.32275 11.9868H4.32275C4.32275 12.9215 5.07822 13.6924 6.02002 13.6924V11.6924ZM6.32275 11.9868C6.32275 12.0239 6.31504 12.0712 6.2934 12.1208C6.2719 12.1701 6.24247 12.2084 6.21421 12.2349L4.84633 10.7758C4.51425 11.0872 4.32275 11.5162 4.32275 11.9868H6.32275ZM6.23856 12.2113L8.72049 9.72106L7.30392 8.30921L4.82199 10.7994L6.23856 12.2113ZM8.72049 8.30921L6.23856 5.81898L4.82199 7.23083L7.30392 9.72106L8.72049 8.30921ZM6.18878 5.77233C6.29407 5.86446 6.32275 5.97527 6.32275 6.04346H4.32275C4.32275 6.49348 4.50085 6.95292 4.87177 7.27748L6.18878 5.77233ZM6.32275 6.04346C6.32275 6.22942 6.17482 6.35449 6.02002 6.35449V4.35449C5.10155 4.35449 4.32275 5.09382 4.32275 6.04346H6.32275ZM6.02002 6.35449C5.99124 6.35449 5.94163 6.34832 5.88482 6.32324C5.82874 6.29847 5.79131 6.26663 5.77193 6.24595L7.231 4.87807C6.92444 4.55108 6.50572 4.35449 6.02002 4.35449V6.35449ZM5.79554 6.2703L8.28577 8.75223L9.69762 7.33566L7.20739 4.85373L5.79554 6.2703ZM9.69645 8.7534L12.2033 6.26316L10.7938 4.84426L8.28695 7.33449L9.69645 8.7534ZM12.2255 6.24033C12.2177 6.24864 12.1858 6.27888 12.1276 6.30456C12.0682 6.3308 12.0139 6.33789 11.98 6.33789V4.33789C11.5095 4.33789 11.0927 4.52707 10.7715 4.86709L12.2255 6.24033ZM11.98 6.33789C11.8101 6.33789 11.6772 6.19783 11.6772 6.03516H13.6772C13.6772 5.10881 12.9301 4.33789 11.98 4.33789V6.33789ZM11.6772 6.03516C11.6772 6.02856 11.6785 5.98032 11.7061 5.9139C11.7353 5.84354 11.7767 5.79465 11.8054 5.76919L13.1341 7.26401C13.5268 6.9149 13.6772 6.46919 13.6772 6.03516H11.6772ZM11.7614 5.81067L9.27121 8.30921L10.6878 9.72107L13.178 7.22253L11.7614 5.81067ZM9.27357 9.72343L11.7555 12.1971L13.1673 10.7805L10.6854 8.30685L9.27357 9.72343ZM11.7543 12.1959C11.7385 12.1801 11.714 12.1496 11.6947 12.104C11.6749 12.0576 11.6689 12.0152 11.6689 11.9868H13.6689C13.6689 11.5093 13.4794 11.0925 13.1685 10.7817L11.7543 12.1959ZM11.6689 11.9868C11.6689 11.8402 11.7941 11.6924 11.9717 11.6924V13.6924C12.9295 13.6924 13.6689 12.9137 13.6689 11.9868H11.6689ZM11.9717 11.6924C12.0592 11.6924 12.1335 11.7305 12.1807 11.7778L10.7665 13.192C11.0628 13.4883 11.4858 13.6924 11.9717 13.6924V11.6924ZM12.1819 11.7789L9.69999 9.2887L8.28341 10.7006L10.7653 13.1908L12.1819 11.7789ZM8.28223 9.28989L5.8086 11.7801L7.22753 13.1896L9.70117 10.6994L8.28223 9.28989ZM5.78853 11.8009C5.82275 11.7644 5.86486 11.7353 5.91002 11.7164C5.95482 11.6976 5.99372 11.6924 6.02002 11.6924V13.6924C6.47886 13.6924 6.92286 13.5152 7.2476 13.1688L5.78853 11.8009Z" fill="white" mask="url(#path-1-outside-1_8476_5558)"/>
</svg>
